<svg version="1.1" id="Layer_1" xmlns="http://www.w3.org/2000/svg" xmlns:xlink="http://www.w3.org/1999/xlink" x="0px" y="0px"
	 width="100%" viewBox="0 0 1024 672" enable-background="new 0 0 1024 672" xml:space="preserve">
<path fill="#000000" opacity="1.000000" stroke="none" 
	d="
M180.907959,350.159546 
	C184.146545,346.056854 188.478882,344.358856 192.927231,343.979126 
	C220.780548,341.601532 246.247772,331.861572 271.318024,320.153442 
	C300.935272,306.321808 332.313934,299.467346 365.079803,298.474030 
	C378.782501,298.058624 392.353394,299.209747 405.985657,299.638519 
	C413.622345,299.878693 414.618439,298.534790 412.619629,291.111694 
	C410.339203,282.642761 405.948669,275.155792 401.098938,267.946930 
	C390.122162,251.630585 378.375885,235.645523 371.539917,217.065018 
	C359.595856,184.600510 360.576172,153.226761 383.035583,125.039886 
	C407.830933,93.921303 456.044250,87.219170 488.648621,109.902626 
	C507.780334,123.212921 517.576294,151.050903 509.817657,172.876114 
	C506.041443,183.498734 509.305115,192.674591 512.651306,202.312622 
	C516.539185,194.193726 520.218079,185.591309 516.916809,176.837814 
	C507.386353,151.567581 516.700134,111.817787 557.966125,99.899612 
	C605.781189,86.089973 652.066528,114.988663 660.920837,163.980927 
	C665.486755,189.244919 659.195068,212.521957 646.800293,234.502716 
	C640.323181,245.989105 632.618530,256.668549 625.284790,267.592438 
	C620.722473,274.388123 616.424805,281.321411 613.949158,289.197021 
	C610.948120,298.744080 612.095947,300.412567 621.900452,299.536438 
	C628.719788,298.927032 635.535645,298.807098 642.358582,298.558289 
	C670.701782,297.524689 698.540955,300.539062 725.669128,309.057343 
	C737.282532,312.703979 748.753540,316.910034 759.608704,322.351288 
	C782.341431,333.746277 806.042908,341.468689 831.446655,343.744720 
	C833.894592,343.964050 836.354614,344.723572 838.672791,345.594727 
	C846.751587,348.630615 849.351990,355.480499 845.555298,363.321411 
	C845.054138,364.356323 844.576111,365.402435 843.893677,366.855835 
	C848.499878,368.263824 852.949829,367.743317 857.314148,367.449493 
	C865.788574,366.879059 874.190002,365.676361 882.553223,364.139832 
	C890.675110,362.647675 894.749512,366.671143 892.327332,374.549438 
	C890.545227,380.346008 890.266907,386.472107 888.363770,392.001862 
	C885.969055,398.960114 880.092773,403.975647 874.504272,408.779419 
	C863.729370,418.041229 851.118347,424.034943 837.969360,429.012268 
	C835.727600,429.860840 833.835693,431.027191 832.139038,432.709381 
	C808.619507,456.027802 779.747314,468.779266 747.737427,475.222717 
	C742.692627,476.238159 737.541687,476.752319 732.424255,477.369202 
	C730.164001,477.641693 728.323547,478.528992 726.640564,480.017609 
	C725.273315,481.226868 723.657288,482.154968 722.290710,483.364807 
	C719.617310,485.731567 714.859680,485.513794 713.777649,489.713196 
	C712.105347,496.203400 711.185120,502.796936 713.181274,509.426788 
	C713.660828,511.019684 714.289062,512.567200 714.818481,514.145752 
	C718.039185,523.750305 715.999329,529.908691 706.809937,534.447632 
	C695.920410,539.826294 684.634827,544.402893 673.520508,549.326477 
	C673.063660,549.528870 672.557373,549.656006 672.151489,549.932007 
	C662.776611,556.306519 653.693420,555.695557 643.594421,550.667480 
	C634.431274,546.105347 624.060730,545.466431 613.755615,546.800720 
	C604.214905,548.036011 601.740112,545.093506 604.851440,535.126099 
	C595.056458,538.356873 590.244568,527.900024 581.537903,527.612427 
	C576.931030,527.460144 572.343567,526.174744 567.788025,525.208984 
	C564.947693,524.606812 562.267761,523.482300 561.752197,520.088440 
	C561.251892,516.794495 563.189819,514.740662 565.715027,513.175598 
	C567.408936,512.125732 569.203613,511.209747 571.030579,510.410553 
	C573.370239,509.387177 574.656921,508.317078 574.158630,505.189789 
	C573.461975,500.817505 576.332581,498.150757 582.334106,496.999115 
	C591.831421,495.176666 601.446350,494.228363 611.108215,493.953369 
	C616.935669,493.787476 622.775208,493.864624 628.604553,494.016632 
	C631.735901,494.098297 633.235168,492.671875 633.570068,489.719574 
	C633.645142,489.057892 633.682739,488.391632 633.726868,487.726776 
	C634.417236,477.322144 634.434326,477.264404 624.529602,474.267334 
	C617.016907,471.994171 609.775391,469.070679 602.662720,465.775146 
	C597.993042,463.611511 593.233215,461.987885 588.053101,461.007629 
	C578.964844,459.287811 572.004456,453.170380 565.040039,447.464722 
	C560.719360,443.924988 556.899963,440.133636 551.423584,437.779266 
	C543.665039,434.443787 538.036621,427.663300 533.907532,420.419128 
	C527.435608,409.064545 518.288452,399.438660 513.273621,387.685669 
	C505.206726,400.770050 497.199310,414.051453 487.781830,426.385834 
	C483.206268,432.378601 477.773865,437.522095 470.144165,439.692444 
	C467.853485,440.344055 466.440216,442.455505 464.723145,444.021057 
	C457.933319,450.211639 451.227295,457.300415 442.246826,459.403961 
	C426.558838,463.078644 412.903717,472.046234 397.218781,475.414276 
	C393.808929,476.146454 392.302032,477.937286 392.221069,481.641998 
	C391.957764,493.693512 392.145264,494.156342 403.948608,493.877380 
	C416.984924,493.569275 429.908081,494.530090 442.742828,496.729767 
	C450.115387,497.993347 451.491913,499.555817 451.734314,506.960541 
	C451.791107,508.696564 452.754913,509.215454 453.963501,509.840546 
	C456.181824,510.987854 458.425598,512.102478 460.555145,513.400635 
	C463.095337,514.949158 465.125977,517.099182 464.601166,520.289856 
	C464.063293,523.559937 461.336700,524.682068 458.408600,525.248230 
	C452.854645,526.322205 447.289032,527.336731 441.740234,528.436218 
	C438.422699,529.093689 435.338379,530.132751 433.273499,533.182251 
	C432.059845,534.974609 430.040649,535.384399 427.941833,535.354126 
	C425.807678,535.323364 423.672791,535.347351 421.173828,535.347351 
	C421.461639,536.419983 421.563049,537.049927 421.795776,537.626831 
	C424.354431,543.968872 421.730438,547.666565 414.763275,547.040527 
	C408.610596,546.487488 402.531860,546.073608 396.346710,546.913391 
	C388.976776,547.914185 382.080872,550.252136 375.487000,553.493835 
	C370.942230,555.728210 366.591675,555.785034 362.038757,553.744202 
	C349.119141,547.953064 336.172546,542.222168 323.244232,536.450439 
	C321.877594,535.840271 320.534912,535.164856 319.226288,534.438293 
	C310.354614,529.512573 307.882507,523.550598 311.604919,514.050720 
	C314.614929,506.369019 314.386627,498.771362 312.681885,491.002228 
	C312.438416,489.892792 312.114899,488.151642 311.400146,487.894806 
	C303.846222,485.180542 299.066071,478.027313 290.111572,476.917847 
	C253.342743,472.362091 220.152649,459.376831 193.589203,432.408813 
	C191.620697,430.410309 189.214325,429.450073 186.729065,428.488983 
	C170.415222,422.180481 154.985672,414.462494 143.546341,400.637695 
	C139.661621,395.942932 135.010956,391.462097 137.267166,384.249908 
	C137.567566,383.289673 136.439194,381.827118 135.853943,380.656464 
	C134.575012,378.098450 133.652527,375.482086 133.511261,372.570923 
	C133.168655,365.510895 135.746567,362.782593 142.712097,363.948517 
	C151.751984,365.461670 160.779633,366.963654 169.940659,367.409363 
	C173.671982,367.590881 177.546875,368.518951 181.462677,366.081268 
	C179.147064,360.969086 177.068069,355.784546 180.907959,350.159546 
M297.496124,422.111084 
	C294.957672,422.363708 292.419220,422.616302 289.532593,422.903564 
	C291.086487,425.385742 293.191223,425.650665 294.988770,426.308136 
	C305.277283,430.071411 316.042358,431.800537 326.872040,431.511200 
	C352.015045,430.839447 376.069702,425.527100 398.017303,412.563110 
	C399.504547,411.684662 401.004578,410.278809 403.483124,411.869141 
	C402.159424,416.762421 397.417450,418.699585 394.044952,422.245911 
	C412.002777,418.248383 427.818115,410.695312 441.633514,399.307678 
	C460.576752,383.693451 467.707581,362.551971 453.924103,340.553040 
	C452.907318,338.930176 451.662842,337.171478 452.875702,335.074860 
	C455.067963,334.018677 456.452118,335.454529 457.826843,336.577057 
	C461.240234,339.364288 463.842773,342.806915 465.512787,346.893768 
	C472.140228,363.112305 469.928497,378.328552 459.559204,392.176392 
	C446.558502,409.538513 428.340576,419.368835 408.242859,426.056396 
	C399.891571,428.835297 391.393127,431.880554 382.438782,431.145844 
	C378.118469,430.791351 374.288635,431.468597 370.277374,432.631866 
	C348.726044,438.881592 326.828217,441.198944 304.612244,437.156128 
	C295.771423,435.547302 286.903961,433.251648 280.447479,426.245941 
	C278.249725,423.861237 275.843658,422.764496 272.726257,422.280670 
	C262.952942,420.763733 253.576248,417.890045 244.885544,413.075562 
	C240.920715,410.879120 237.014359,408.382874 235.407394,403.882202 
	C234.421387,401.120636 232.537674,400.120819 230.048325,399.316498 
	C217.996307,395.422455 206.891281,389.685883 198.117798,380.445648 
	C194.801270,376.952728 191.507599,375.905273 187.109573,376.452332 
	C177.148041,377.691315 167.199997,377.625366 157.208145,376.461548 
	C153.562836,376.036957 149.859283,374.388763 145.497177,375.989380 
	C149.613693,382.621277 155.481888,386.515564 161.964935,389.580597 
	C174.787766,395.642914 188.634888,396.248718 202.456055,396.952942 
	C204.589035,397.061615 207.139145,396.370880 208.932098,399.963959 
	C189.633545,405.059937 171.434311,403.032684 152.966278,395.654449 
	C157.953201,401.592377 163.546890,405.470062 169.366013,409.082458 
	C184.331360,418.372650 200.921158,423.137360 217.979355,426.615967 
	C219.843811,426.996185 222.120575,426.834015 222.347137,429.867767 
	C218.071808,432.896271 212.946701,430.116394 208.450195,431.673523 
	C208.655731,433.536987 210.101822,434.259827 211.215530,435.121613 
	C233.755493,452.562134 259.466553,462.352356 287.445892,466.689056 
	C291.698547,467.348206 293.276398,465.776642 292.745361,461.524597 
	C292.524048,459.752350 292.755157,457.832123 293.208893,456.090820 
	C293.742035,454.044830 294.415527,451.423798 297.146118,451.692841 
	C299.979645,451.972015 299.149506,454.690216 299.311798,456.537292 
	C300.463440,469.643219 309.343872,478.128876 322.445007,477.681305 
	C340.304108,477.071167 355.977386,471.117920 367.967560,457.204132 
	C368.899261,456.122955 369.772247,454.362091 371.541229,455.246460 
	C373.360352,456.156036 373.048950,457.934479 372.581329,459.652191 
	C371.476837,463.709442 368.821198,466.890839 366.583527,470.614349 
	C396.629456,466.346313 425.411041,459.594818 446.629456,434.832916 
	C449.267334,439.881195 445.712921,442.711182 445.098206,446.607635 
	C460.018494,437.005188 469.894897,423.982666 477.109314,407.862579 
	C480.890320,413.190674 477.247772,417.433868 477.834686,421.874023 
	C491.244354,408.230347 496.155334,391.094269 499.333344,373.013641 
	C504.166779,375.356293 502.810730,378.970306 503.561371,382.395966 
	C503.972260,381.131317 504.289062,380.379700 504.460388,379.596252 
	C509.212524,357.865631 506.308533,336.910980 497.952667,316.541595 
	C490.653931,298.749237 477.895874,284.813751 465.275482,270.830566 
	C455.003601,259.449493 444.374176,248.376175 435.853241,235.550903 
	C425.437073,219.872971 418.400238,203.302841 422.692749,183.858673 
	C423.148712,181.793274 422.201904,179.942017 421.623779,178.036835 
	C420.556000,174.517990 419.624603,171.008713 420.574524,167.252289 
	C421.223969,164.684097 422.015808,162.130020 425.104736,162.159363 
	C428.251038,162.189240 428.429413,164.935272 428.626862,167.280685 
	C429.229858,174.444748 433.071777,179.536194 438.513062,183.917908 
	C445.318604,189.398132 453.300934,191.851990 461.441589,193.663284 
	C460.736084,192.255981 459.769073,190.721298 459.187683,189.052292 
	C458.645630,187.496307 459.316437,186.090256 460.696259,185.154861 
	C461.793915,184.410797 463.095490,184.406509 463.885651,185.406815 
	C467.124969,189.507416 470.087921,186.963715 472.957184,185.056595 
	C475.780487,183.179977 477.631531,180.365219 479.476959,177.568893 
	C482.806427,172.523834 483.749237,172.331070 489.087280,175.298401 
	C493.277405,177.627609 496.352356,176.973907 498.860870,172.935181 
	C499.989960,171.117294 501.085144,169.102325 501.489502,167.038422 
	C504.514221,151.600388 501.578888,137.402115 491.007568,125.567970 
	C477.827362,110.813286 460.615631,105.825523 441.354370,107.059875 
	C412.122803,108.933197 391.096100,123.350357 380.239258,150.384689 
	C370.222168,175.328064 373.885406,200.009689 385.940765,223.707718 
	C393.527527,238.621414 403.540619,251.977448 412.465057,266.033936 
	C418.374512,275.341705 423.880157,284.945831 424.444031,296.345245 
	C424.822540,303.997772 421.160492,308.184723 413.592346,309.355988 
	C404.948395,310.693665 396.286255,309.448151 387.694763,308.918732 
	C356.543640,306.999054 326.224274,310.881989 296.676147,320.807861 
	C278.484467,326.918854 261.585693,336.126770 243.786285,343.189575 
	C243.250870,343.401978 242.875061,344.016602 242.060837,344.788971 
	C254.240860,355.434082 269.095123,350.645721 283.135559,352.252472 
	C281.996002,355.710541 279.661560,356.484039 277.342438,357.270905 
	C271.926056,359.108673 266.218170,359.275940 260.635742,360.156006 
	C259.101257,360.397888 257.528076,360.569489 257.014160,362.280426 
	C256.452332,364.150818 258.142853,364.884705 259.220856,365.811707 
	C262.038513,368.234680 265.375092,369.695923 268.824066,371.026733 
	C277.623383,374.421967 286.807220,374.028137 295.965912,374.123322 
	C298.637695,374.151062 301.655792,373.429657 303.915100,376.800262 
	C296.530884,382.424011 287.604767,379.150818 279.048370,381.270630 
	C295.849792,396.460968 315.612701,398.591095 336.437592,397.790558 
	C329.782349,404.453674 321.019104,402.534088 312.920715,404.861145 
	C317.298187,408.730713 322.147858,410.339874 327.126770,411.605927 
	C337.696167,414.293610 348.280884,413.223999 358.863739,411.602936 
	C360.728790,411.317261 362.774414,410.207611 364.387909,412.361572 
	C364.258728,414.994598 361.986603,415.488800 360.265442,416.068054 
	C343.214722,421.806549 326.566620,421.328003 310.548920,412.472839 
	C303.545837,401.498962 290.435699,400.072906 280.697083,393.376007 
	C279.873566,392.809723 278.936249,392.336273 278.277863,391.613708 
	C271.376984,384.039581 263.695953,377.747620 254.379089,373.016510 
	C250.027893,370.806976 246.553162,369.242065 241.578552,369.714874 
	C232.190002,370.607086 222.919983,369.443390 214.699692,364.217010 
	C212.459457,362.792694 210.080353,361.011078 211.058319,357.018188 
	C217.567062,359.959412 223.696091,362.968964 230.663345,363.272308 
	C237.467773,363.568542 244.252411,364.043121 250.625458,359.035828 
	C245.796036,356.362640 240.832840,355.615326 237.913666,352.245880 
	C233.590805,347.256256 229.109909,347.516785 223.310516,348.916199 
	C213.625229,351.253296 203.664780,352.427216 193.864594,354.320770 
	C188.872314,355.285400 188.255493,357.333374 191.578354,361.029449 
	C194.851593,364.670319 198.831528,367.376526 203.315918,369.354919 
	C212.739685,373.512360 222.648926,375.402466 232.889191,375.915100 
	C235.145584,376.028076 237.886612,375.383453 239.488388,378.585388 
	C230.610016,382.224365 221.606339,381.016510 212.615463,380.790710 
	C213.954697,382.223450 215.309723,383.159790 216.725998,383.991913 
	C228.903641,391.146973 241.943954,395.132233 256.186188,394.884399 
	C258.662170,394.841278 261.527374,394.226227 263.765564,397.520233 
	C257.936127,401.490417 251.270004,400.693176 244.500183,401.919861 
	C248.297577,406.337982 253.011307,407.967499 257.569336,409.792297 
	C271.957672,415.552612 287.029572,416.415588 302.288086,415.984192 
	C304.454071,415.922943 306.940948,415.296814 308.801758,417.991425 
	C305.941376,421.473785 301.841034,421.038910 297.496124,422.111084 
M733.346863,422.477448 
	C727.499084,421.845764 721.311401,422.321930 715.868713,417.926117 
	C719.630554,414.827728 723.096008,415.957764 726.255859,416.065155 
	C744.177185,416.673889 761.512939,414.450500 777.655334,406.066254 
	C779.415894,405.151825 781.693481,404.555664 782.149902,401.765228 
	C776.051270,400.387421 769.302063,402.044098 764.641296,396.348267 
	C773.399963,394.173004 782.436096,394.819366 790.992371,392.185303 
	C799.608154,389.532959 807.491516,385.633301 815.806396,379.975159 
	C805.749451,380.727844 796.771484,382.526306 787.833313,378.383240 
	C789.823486,375.764557 792.102356,376.068604 794.179077,375.838318 
	C797.814331,375.435272 801.494568,375.302490 805.085632,374.662018 
	C814.517517,372.979797 823.600220,370.284943 831.136169,363.979980 
	C833.393188,362.091583 836.762207,360.162476 836.110046,357.018311 
	C835.386658,353.531006 831.279663,353.920166 828.498962,353.544373 
	C820.080078,352.406799 811.617493,351.371307 803.428772,349.195282 
	C797.229553,347.547913 792.093201,346.951843 787.563416,352.817871 
	C785.902893,354.968323 782.438049,355.750458 779.756042,357.075531 
	C778.607361,357.643066 777.088379,357.665131 776.694031,360.574615 
	C790.022888,366.612762 802.634155,363.155304 814.906677,356.737518 
	C815.981201,358.884491 815.252197,359.988953 814.414062,361.029114 
	C812.490906,363.415894 810.096252,365.240814 807.222229,366.259674 
	C799.303589,369.066956 791.263855,370.119232 782.732605,369.745636 
	C772.435425,369.294708 763.960754,376.063934 757.333435,382.174591 
	C749.885681,389.041840 742.917419,395.836182 733.412292,399.436127 
	C728.311829,401.367889 722.858032,402.367401 720.367126,408.222107 
	C719.847351,409.443817 718.240845,410.304443 716.987122,411.097382 
	C700.340576,421.625214 682.799072,421.714813 664.750366,415.445312 
	C663.357849,414.961639 661.861450,414.413177 661.704651,411.139771 
	C679.227661,412.633514 697.294861,416.632233 713.326233,404.494110 
	C705.063721,402.828491 696.611206,404.532043 689.619141,399.180115 
	C691.487488,396.174042 693.741272,397.246338 695.788208,397.340332 
	C711.605713,398.066742 726.628540,395.346680 740.282471,386.899719 
	C742.433044,385.569275 744.779968,384.292786 745.798157,381.630310 
	C740.182007,379.319122 733.463806,382.016876 728.885620,377.083862 
	C730.197449,374.548798 732.163818,374.861969 733.934753,374.718689 
	C738.083618,374.382996 742.253052,374.221924 746.379822,373.711975 
	C753.754700,372.800659 760.675415,370.539093 766.721741,366.049774 
	C768.058411,365.057343 769.643616,363.985931 769.278381,362.087402 
	C768.859253,359.908569 766.799194,360.309875 765.204285,360.082062 
	C759.443909,359.259186 753.574402,359.001190 748.026245,357.049347 
	C745.936768,356.314301 743.485657,355.794678 742.927185,352.244080 
	C756.890137,350.769135 771.980042,355.296295 784.462463,344.391052 
	C774.877808,340.136810 765.939392,336.498901 757.288940,332.271820 
	C722.958984,315.496460 686.646240,307.838348 648.557556,308.374573 
	C638.743958,308.512695 628.923584,309.130768 619.135620,309.900208 
	C605.442078,310.976593 598.913818,303.569916 602.213013,290.299133 
	C602.293152,289.976593 602.439392,289.670624 602.521362,289.348419 
	C605.287842,278.470032 611.454956,269.355621 617.594727,260.220581 
	C629.763367,242.115311 643.000549,224.522034 648.669373,202.963913 
	C654.891113,179.303223 652.961487,156.369888 638.474182,136.101349 
	C622.504333,113.758713 599.931824,104.711624 572.713623,107.201981 
	C551.419128,109.150345 526.217224,122.328003 523.427795,154.240326 
	C522.900269,160.275818 523.225769,166.296967 526.133606,171.779785 
	C527.941589,175.188751 530.371399,177.903351 534.929260,175.959915 
	C542.802429,172.602844 542.776123,172.656509 547.833801,180.105209 
	C548.942932,181.738770 550.231628,183.376251 551.783691,184.556992 
	C554.989624,186.995819 558.335693,189.653336 562.213379,185.336807 
	C563.171631,184.270065 564.681702,184.273254 565.858154,185.256729 
	C566.969971,186.186157 567.381958,187.524277 566.900635,188.880249 
	C566.434753,190.192551 565.669861,191.398712 564.569092,193.575424 
	C580.354431,188.974274 594.869446,184.550491 597.234192,165.720261 
	C597.450256,163.999741 598.442810,162.466995 600.349487,162.243744 
	C602.494080,161.992645 603.692688,163.473648 604.486572,165.228012 
	C605.781677,168.089859 605.909546,171.345734 605.013916,174.054642 
	C603.164307,179.648392 603.593506,185.064880 604.256104,190.728104 
	C606.127258,206.721146 599.742554,220.355545 591.426941,233.361908 
	C581.761963,248.478851 569.238037,261.221558 557.326172,274.468414 
	C542.981201,290.420990 529.769653,307.008087 523.815002,328.237518 
	C518.825073,346.027496 517.673218,363.825897 522.429565,382.960938 
	C523.122559,378.888153 522.377808,375.339233 526.581909,372.566956 
	C529.985291,390.912109 534.901001,408.096893 548.255249,421.836975 
	C547.805786,417.298431 545.479919,413.228577 548.797546,407.532684 
	C556.124756,423.800903 565.521606,436.955841 580.584656,446.145447 
	C579.323242,442.372833 576.717102,439.523315 578.571106,434.326050 
	C589.030090,446.262024 600.874695,455.006989 615.103210,460.197571 
	C629.207642,465.342834 643.492493,469.587830 659.424377,470.812531 
	C656.864990,466.355499 653.845703,463.485413 653.251831,459.333008 
	C653.036987,457.830383 652.463501,456.183624 654.097839,455.297607 
	C655.860596,454.342041 656.882080,455.961884 657.757507,457.060455 
	C667.369202,469.122223 680.538818,474.561371 695.192688,477.138092 
	C713.274475,480.317566 725.384583,473.374664 726.967590,455.101776 
	C727.092468,453.660095 727.054932,451.763489 729.036560,451.620728 
	C731.249695,451.461304 732.173279,453.311340 732.776978,455.058197 
	C734.045715,458.729980 732.877869,462.614594 733.426514,467.267334 
	C765.108032,463.478271 793.170898,452.185577 818.525513,432.081055 
	C813.211060,429.769897 807.474915,433.381805 802.451477,427.896851 
	C812.143677,425.720947 820.777588,424.282898 829.035522,421.428162 
	C837.396118,418.537842 845.674255,415.517181 853.340637,411.034149 
	C860.798706,406.672913 868.127014,402.148651 874.312256,394.507874 
	C856.856628,402.584137 839.643677,403.761932 821.986450,401.336975 
	C820.093811,401.077026 817.985168,400.964142 817.522400,398.470642 
	C818.945251,396.925690 820.673218,397.089172 822.308411,396.965912 
	C827.949951,396.540649 833.602112,396.229370 839.232117,395.686584 
	C849.595276,394.687500 859.693848,392.644318 868.640625,386.926636 
	C873.449097,383.853699 878.177063,380.614410 881.024414,374.684174 
	C866.055115,377.135406 851.667725,378.321777 837.165588,376.381836 
	C834.866943,376.074371 832.589417,376.053955 830.716858,378.090485 
	C821.099731,388.549866 809.062317,395.079529 795.697144,399.418274 
	C794.297241,399.872711 792.783081,400.261902 792.411560,402.084595 
	C791.290649,407.584351 786.921204,410.258789 782.632446,412.765076 
	C775.238159,417.086212 767.165833,419.764801 758.780762,421.384766 
	C753.043884,422.493073 747.427917,423.522461 743.428162,428.488647 
	C742.346924,429.831238 740.469299,430.613495 738.843079,431.423676 
	C723.375793,439.129089 706.793518,439.315460 690.036438,438.869507 
	C671.723206,438.382141 654.516602,431.707672 636.148926,430.420502 
	C616.463745,429.040985 598.264893,420.312012 582.240234,408.253143 
	C569.352295,398.554657 559.333008,386.715302 557.292236,369.994690 
	C555.791138,357.695587 557.292480,345.976746 566.723083,336.674622 
	C568.032349,335.383179 569.338013,333.361664 571.774902,335.014740 
	C572.495728,337.593170 570.935669,339.531342 569.946838,341.562592 
	C561.023743,359.891571 563.600586,376.687592 576.495972,392.201294 
	C579.400757,395.695923 582.772278,398.657196 586.379944,401.344788 
	C599.928467,411.438019 614.717407,418.841309 632.013855,422.323090 
	C628.283325,418.640930 623.476196,416.686829 623.312256,410.623901 
	C640.509094,420.847656 658.878174,427.068970 678.499756,429.741272 
	C698.293579,432.437073 717.754150,432.698730 737.573975,423.738983 
	C735.552917,423.119232 734.788574,422.884857 733.346863,422.477448 
M581.225342,229.729645 
	C588.125610,218.549576 594.752502,207.282272 593.334717,192.396637 
	C591.051086,193.578323 589.448181,194.326065 587.925110,195.211212 
	C583.421570,197.828583 578.688232,199.995010 573.519104,200.621399 
	C569.325256,201.129608 566.726868,203.188889 564.379761,206.571030 
	C556.901550,217.346848 547.888489,226.646362 536.379211,233.191025 
	C529.641724,237.022232 522.519775,238.903046 514.877502,235.804443 
	C513.746094,235.345673 512.636658,235.166168 511.494568,235.661896 
	C503.065033,239.320587 495.483551,236.440857 488.203735,232.391266 
	C477.061768,226.193268 468.567749,217.099487 461.128845,206.913437 
	C459.673828,204.921143 458.644318,202.040604 456.107025,201.576157 
	C447.896454,200.073151 440.124573,197.555893 433.584717,192.636200 
	C432.124115,194.007263 432.352448,195.060501 432.321350,196.023529 
	C432.002533,205.896805 435.700806,214.603561 440.463593,222.900757 
	C449.746948,239.073181 462.630219,252.412064 474.964691,266.171326 
	C486.647186,279.203278 498.404999,292.194885 505.981049,308.231689 
	C508.498657,313.560883 510.585815,319.093475 513.252991,325.445770 
	C519.841797,302.556305 533.631836,285.147858 548.643860,268.492218 
	C559.789001,256.126831 571.295166,244.058380 581.225342,229.729645 
M384.160553,528.306213 
	C374.184692,524.967957 363.810181,523.365356 353.513275,521.517395 
	C347.205597,520.385376 340.737793,518.647156 334.428680,521.934143 
	C333.388031,522.476318 332.080505,522.438477 331.377625,521.149109 
	C330.721436,519.945435 331.337769,518.854065 332.011688,517.906799 
	C333.837067,515.341064 336.559265,513.008789 336.507141,509.731110 
	C336.386810,502.163239 335.744049,494.603668 335.297607,486.766479 
	C330.907410,487.289062 326.713348,486.712982 322.579163,489.106049 
	C325.206146,499.224274 324.971619,509.162811 320.760559,518.882385 
	C319.593079,521.577026 321.040771,523.873535 323.587494,525.041931 
	C337.112946,531.247070 350.684357,537.352051 364.239838,543.491760 
	C360.802521,539.086792 356.627899,535.856445 352.297577,532.755249 
	C348.165070,529.795715 342.530121,529.094788 338.881653,524.597839 
	C342.463623,521.997375 345.289886,523.386108 347.970612,524.490967 
	C356.574921,528.037292 363.976044,533.322083 370.023560,540.419617 
	C371.341980,541.966858 372.404175,543.849243 374.868347,542.648926 
	C382.391479,538.984436 390.489899,537.379517 399.824036,536.108032 
	C394.624023,532.409973 389.814728,530.379883 384.160553,528.306213 
M690.415527,488.935577 
	C690.867188,492.413391 690.780457,495.860352 690.497925,499.375610 
	C689.972107,505.920349 688.452759,512.807251 694.451843,518.063538 
	C695.340271,518.841980 695.783325,520.141846 695.019714,521.252197 
	C694.033325,522.686707 692.619080,522.071045 691.413269,521.541016 
	C687.933716,520.011536 684.291260,519.742859 680.629028,520.315186 
	C666.494446,522.524170 652.285095,524.488342 638.795410,529.545898 
	C634.697571,531.082214 630.504089,532.673279 626.645996,536.196960 
	C634.646179,537.340698 642.028992,538.453918 648.843933,541.612366 
	C652.078430,543.111389 654.169922,542.394836 656.584961,539.686340 
	C662.626953,532.910156 669.802490,527.462646 678.362854,524.178528 
	C680.911865,523.200623 683.859192,521.776917 687.015991,525.087830 
	C677.861328,530.681702 668.171753,534.749207 660.862915,543.898499 
	C674.807800,537.653015 687.750854,531.956177 700.600098,526.055115 
	C706.174622,523.494995 706.692993,522.088745 704.666565,516.234253 
	C702.796936,510.832916 701.253601,505.414307 701.857849,499.632538 
	C702.233582,496.036987 702.772339,492.458496 703.341492,488.074280 
	C698.696777,488.442017 694.739136,485.060486 690.415527,488.935577 
M484.004211,182.847748 
	C480.750854,188.186935 476.146912,192.073029 470.347107,194.636246 
	C472.695618,199.620972 475.906281,203.242599 478.978210,206.882721 
	C485.422913,214.519348 492.368286,221.710419 501.360077,226.405975 
	C506.199554,228.933197 508.422821,227.384308 508.669647,221.893127 
	C508.815216,218.654617 508.116608,215.541702 506.672760,212.740997 
	C502.521149,204.687683 499.702911,196.257233 498.695160,187.241318 
	C498.563995,186.067871 498.410645,184.345123 497.110352,184.553024 
	C492.552368,185.281708 488.607056,183.117020 484.004211,182.847748 
M520.125244,210.595337 
	C518.888550,213.495132 517.270325,216.322220 517.389221,219.581299 
	C517.482117,222.124969 516.218445,225.259872 518.965515,226.976517 
	C521.951721,228.842636 524.439758,226.432159 526.627075,224.888062 
	C537.618530,217.129013 546.537720,207.310776 554.225220,196.333496 
	C554.556702,195.860168 554.609558,195.191742 554.893433,194.294098 
	C548.056152,192.109177 543.695862,187.190491 540.033386,181.489212 
	C537.047791,183.646591 534.320190,184.751541 531.179932,184.386688 
	C528.385559,184.061996 527.538879,185.416458 527.169678,188.077850 
	C526.113892,195.687515 523.921509,203.000305 520.125244,210.595337 
M594.311951,504.822937 
	C591.715820,505.679321 588.551392,504.862579 586.018005,507.397064 
	C589.025879,508.378174 591.456055,507.610657 593.875305,507.188538 
	C605.569824,505.148102 617.350159,504.459442 629.201538,504.882172 
	C630.851257,504.940979 632.648743,504.953766 633.733337,506.471832 
	C634.791260,507.952454 632.607544,508.853577 632.601013,510.408020 
	C638.814758,508.095795 645.011841,506.833527 651.262939,505.825714 
	C653.328857,505.492676 654.971924,504.840118 654.322266,502.362701 
	C652.675293,496.081909 653.218323,489.877441 654.385803,483.589264 
	C655.150085,479.472717 651.323853,480.518127 649.278076,479.852417 
	C647.492859,479.271423 644.437866,478.427429 644.490967,481.285461 
	C644.613708,487.894348 641.510864,494.453827 644.017273,501.032562 
	C645.523438,504.986145 643.611145,505.446777 640.477356,504.943542 
	C625.391174,502.521027 610.281311,503.526001 594.311951,504.822937 
M391.127869,509.516266 
	C391.890381,509.715576 392.652863,509.914917 393.598511,510.162140 
	C391.576874,505.159943 394.996094,505.000916 398.006134,504.866119 
	C410.009186,504.328613 421.921417,505.235718 433.750305,507.351440 
	C435.684631,507.697418 437.751160,508.527649 440.501587,506.838013 
	C438.197632,506.256134 436.797333,505.784668 435.358490,505.557220 
	C419.337921,503.024445 403.248199,503.072052 387.148041,504.517853 
	C380.837769,505.084503 380.817627,505.244507 382.861084,499.064026 
	C383.355286,497.569427 383.243591,496.169464 383.052856,494.662384 
	C382.573822,490.877106 382.071869,487.077515 381.939056,483.271118 
	C381.835388,480.299408 380.771851,478.547241 377.776154,479.583862 
	C375.281128,480.447235 370.550934,479.187225 371.795502,484.655365 
	C373.066071,490.237885 373.126434,495.874390 371.962769,501.451477 
	C371.380859,504.240387 372.130127,505.379395 374.951355,505.803528 
	C380.205048,506.593384 385.453278,507.512238 391.127869,509.516266 
M346.749878,500.904358 
	C351.327972,502.344757 357.026459,504.666962 360.458466,501.692535 
	C364.585571,498.115540 362.989624,491.854309 361.871765,486.609314 
	C361.768097,486.122711 361.675873,485.626343 361.501984,485.163208 
	C360.566132,482.671051 359.503296,479.029938 356.603485,479.852325 
	C352.917145,480.897736 347.599548,481.266022 346.602356,485.972260 
	C345.633667,490.544128 344.489746,495.445465 346.749878,500.904358 
M663.526917,490.152039 
	C663.187622,493.478577 663.181335,496.760620 664.156433,500.029114 
	C664.641296,501.654449 665.330322,502.525665 667.134949,502.778198 
	C678.314087,504.342499 681.741577,501.067200 680.252197,490.080719 
	C680.207520,489.751282 680.143250,489.424591 680.094543,489.095642 
	C679.464966,484.843597 673.688354,479.329559 669.486694,479.852142 
	C665.196472,480.385773 665.029053,484.599091 664.093750,487.882782 
	C663.957153,488.362000 663.854370,488.850830 663.526917,490.152039 
M388.229309,523.083557 
	C394.484131,525.611328 400.351685,528.864380 405.931885,532.682800 
	C401.544312,526.403931 396.242462,521.122498 388.856689,518.867676 
	C375.048523,514.652100 360.897064,512.283752 346.351837,512.481506 
	C360.093140,515.875854 374.202545,517.762207 388.229309,523.083557 
M672.481079,512.267273 
	C665.162842,512.654541 658.013733,514.207336 650.818298,515.431335 
	C644.577515,516.492920 638.433716,517.908630 632.756226,520.857422 
	C627.161011,523.763489 622.774597,528.100525 621.260925,532.519226 
	C638.427063,519.313232 659.157288,517.418579 678.807922,512.233459 
	C676.989258,512.233459 675.170593,512.233459 672.481079,512.267273 
M591.375366,514.033997 
	C587.727417,514.822327 584.006042,515.365967 579.889526,517.296265 
	C585.709534,518.792603 591.056091,519.345337 595.684143,522.122437 
	C596.997803,522.910706 598.258728,522.593140 599.403381,521.734985 
	C604.786438,517.698975 610.465027,514.126160 617.678833,510.754211 
	C608.212402,511.196075 600.113525,511.805481 591.375366,514.033997 
M440.841278,515.452087 
	C430.588318,513.052185 420.289825,510.981995 408.771454,510.928253 
	C415.452576,514.070984 420.997589,517.357910 426.199036,521.212097 
	C427.420349,522.117065 428.703369,523.020264 430.295624,522.098572 
	C434.900879,519.432983 440.142029,518.691467 446.047913,517.261597 
	C443.981750,516.516113 442.769257,516.078674 440.841278,515.452087 
M611.085449,524.545410 
	C616.865662,523.456604 619.220093,518.041016 623.475464,515.006104 
	C617.203918,517.027832 611.255310,519.532349 606.090210,523.987976 
	C607.745117,525.044983 609.079712,524.581787 611.085449,524.545410 
M408.148773,520.429932 
	C411.233154,523.748718 414.947052,525.118164 420.189819,524.320312 
	C414.530487,519.663086 408.752014,516.847778 401.486847,514.217773 
	C404.113831,516.664490 405.872192,518.302246 408.148773,520.429932 
z"/>
<path fill="#000000" opacity="1.000000" stroke="none" 
	d="
M361.592468,378.389709 
	C358.306549,381.270966 354.945709,383.133942 350.921448,381.050385 
	C346.674011,378.851318 346.450348,374.692291 346.797333,370.606995 
	C347.434540,363.104340 351.426239,357.517212 357.464539,353.354187 
	C362.686798,349.753784 368.112274,353.011047 373.368713,353.501617 
	C375.521240,353.702484 374.959442,356.623047 374.743774,358.684631 
	C374.248383,363.420135 371.532898,367.821594 372.510193,373.165161 
	C376.562775,372.035461 377.447845,368.607452 378.160309,365.643768 
	C378.771790,363.100159 381.645050,360.022644 376.963623,357.581909 
	C374.628967,356.364716 376.141113,353.810211 378.403473,353.246124 
	C381.101379,352.573456 382.474335,351.115295 382.657776,348.500702 
	C382.930908,344.607361 384.320099,341.873016 388.817688,342.808563 
	C393.133484,343.706238 392.292084,346.918610 391.659149,349.952698 
	C391.529968,350.571899 391.640442,351.241089 391.640442,352.061401 
	C392.958221,352.493866 394.356201,352.655731 395.393463,353.353699 
	C397.690735,354.899506 397.475677,356.601868 395.089874,357.914520 
	C393.298370,358.900208 390.614685,357.691467 389.424408,360.299530 
	C388.601379,362.102966 387.360901,370.623810 387.719452,373.814941 
	C391.779358,372.949677 392.904297,369.635345 394.099152,366.488800 
	C395.704193,362.262238 397.267426,358.003174 400.902008,355.038635 
	C408.032349,349.222900 415.521698,351.229248 418.647247,359.700714 
	C418.930176,360.467529 419.291870,361.205261 419.596161,361.908417 
	C422.376068,362.347565 423.105713,360.750732 423.896942,358.690063 
	C426.016479,353.169952 431.713074,350.488556 437.234314,352.209900 
	C440.234436,353.145233 442.675873,355.067841 441.569031,358.360596 
	C440.207123,362.412354 437.515991,360.354736 435.197235,358.925751 
	C434.859589,358.717682 434.283264,358.896881 433.509796,358.896881 
	C433.221283,361.998322 435.830688,363.116608 437.365082,364.822174 
	C441.844086,369.800934 442.441254,374.776520 438.910858,378.672211 
	C435.239197,382.723785 426.504700,383.511230 422.310303,380.182129 
	C420.170990,378.484131 419.042542,376.370667 419.807434,373.623871 
	C420.404846,371.478485 422.050476,370.239990 424.164032,370.054993 
	C426.250061,369.872406 426.987488,371.448364 427.194855,373.275757 
	C427.409912,375.171173 428.023407,376.802704 430.308868,375.684570 
	C432.167480,374.775238 432.248901,372.917969 431.147797,371.409454 
	C429.601440,369.290894 427.899078,366.231110 425.183746,366.703186 
	C422.225342,367.217499 418.330322,367.459808 417.158264,371.519745 
	C417.022003,371.991699 416.733337,372.422241 416.497772,372.862610 
	C410.909027,383.310364 403.262238,384.762604 394.526978,377.037262 
	C385.211670,383.538910 383.437531,383.580536 378.063232,377.304749 
	C377.681671,377.454407 377.169220,377.523071 376.838287,377.804840 
	C370.902618,382.859100 370.574829,382.874359 361.592468,378.389709 
M410.342896,369.715332 
	C411.795074,365.926788 412.657806,362.187134 409.625854,358.676392 
	C405.825714,360.879913 402.217438,369.322601 403.469879,372.809052 
	C404.238861,374.949738 405.772247,375.163940 407.322693,373.869629 
	C408.420502,372.953156 409.125702,371.566376 410.342896,369.715332 
M356.631256,369.026245 
	C356.448303,370.608124 355.659851,372.319702 357.535034,373.476501 
	C362.544006,370.615509 365.520142,363.280792 363.515106,358.468872 
	C358.911194,360.165985 358.240021,364.480835 356.631256,369.026245 
z"/>
<path fill="#000000" opacity="1.000000" stroke="none" 
	d="
M326.488770,375.295349 
	C325.845276,377.069916 325.553741,378.633301 324.721893,379.816986 
	C323.230072,381.939850 321.037628,382.550934 318.538544,381.630066 
	C316.315491,380.810883 315.304718,379.016510 315.839325,376.880035 
	C318.743805,365.273010 321.154419,353.512115 325.872528,342.436646 
	C326.532532,340.887268 327.687103,339.578766 329.339050,339.003815 
	C330.926025,338.451508 332.671844,338.123749 334.136139,339.211182 
	C335.811066,340.454987 335.255402,342.155060 334.640656,343.755524 
	C332.666748,348.894287 331.783447,354.288025 330.681946,359.674438 
	C338.875549,359.962646 346.052155,350.377899 343.452087,342.897980 
	C342.823151,341.088531 341.564545,339.795105 339.925903,338.839508 
	C329.524048,332.773621 315.306458,340.601227 315.238770,352.530548 
	C315.222473,355.403595 314.547638,357.539093 311.522583,358.087402 
	C308.320984,358.667755 306.568665,356.746460 305.478790,354.039032 
	C304.389679,351.333313 305.292358,348.745056 306.246979,346.277649 
	C311.815887,331.883820 335.235138,325.204803 347.693451,334.405090 
	C352.355804,337.848175 354.387207,343.780579 352.600342,349.548462 
	C350.028870,357.848938 344.417450,363.765747 335.999664,365.143982 
	C329.605133,366.190948 327.260651,369.275146 326.488770,375.295349 
z"/>
<path fill="#000000" opacity="1.000000" stroke="none" 
	d="
M468.279938,141.915649 
	C477.205750,139.912323 483.618286,143.767319 485.622681,151.992691 
	C487.554382,159.919647 483.287567,167.310501 475.543884,169.450836 
	C468.578186,171.376144 461.270111,167.154648 459.209534,160.015350 
	C457.058136,152.561401 460.349243,145.759674 468.279938,141.915649 
z"/>
<path fill="#000000" opacity="1.000000" stroke="none" 
	d="
M632.031372,373.686859 
	C632.338684,371.744781 633.485046,370.239655 632.474670,368.620178 
	C630.763977,368.158630 630.473633,369.451721 629.910217,370.444702 
	C628.598877,372.755554 627.501160,375.246826 625.859314,377.298950 
	C622.201721,381.870544 616.130737,383.302368 611.537720,381.015839 
	C607.116638,378.814911 605.173096,373.631470 606.443542,367.657410 
	C607.513489,362.626282 609.606812,358.181305 613.644653,354.852875 
	C620.605042,349.115387 628.416077,351.382660 631.290649,359.954071 
	C631.554993,360.742310 631.631958,361.598083 632.616882,361.995270 
	C635.052673,361.782166 635.016113,359.577026 635.558655,357.974976 
	C637.853638,351.196777 639.861633,350.503448 645.294373,354.872589 
	C646.105530,354.379700 646.948975,353.860077 647.799133,353.351898 
	C650.739624,351.594208 653.782410,351.096069 656.702148,353.207062 
	C659.543579,355.261383 659.455688,358.242554 658.920837,361.357056 
	C658.264404,365.179291 656.427979,368.909271 657.709778,373.409058 
	C661.400269,371.800140 662.781494,368.781128 663.519043,365.629028 
	C664.154907,362.911316 666.415955,359.863281 661.995300,357.506683 
	C660.090088,356.491028 661.624390,353.920197 663.601685,353.438232 
	C666.837769,352.649567 667.719116,350.375244 668.177429,347.633911 
	C668.693359,344.547485 669.719543,342.133636 673.579407,342.704315 
	C677.596130,343.298187 677.428528,346.165344 677.164124,349.121002 
	C677.077881,350.084961 677.016296,351.051086 676.960876,351.784760 
	C677.895752,352.951752 678.979004,352.745911 679.934509,352.902100 
	C681.397339,353.141144 682.529968,353.818420 682.589233,355.390930 
	C682.639343,356.721344 681.592957,357.431183 680.485229,357.915497 
	C678.438538,358.810333 675.407532,358.251465 674.621399,361.013916 
	C673.500977,364.951263 672.501709,368.975891 672.785339,373.460846 
	C676.798462,373.143494 677.580505,370.013184 678.702209,367.462128 
	C680.240723,363.963043 681.287476,360.242340 683.727234,357.184509 
	C690.112061,349.182159 699.550354,350.168762 703.957275,359.326416 
	C704.459534,360.370026 704.644104,361.639252 706.167908,361.645813 
	C707.802856,361.652893 708.423645,360.553833 708.876465,359.189240 
	C710.572876,354.077606 714.305664,351.799438 719.524780,351.825165 
	C722.478943,351.839722 725.164185,352.611969 726.637085,355.543823 
	C727.398376,357.059265 727.169434,358.502686 725.959656,359.659424 
	C723.373352,362.132507 721.471497,358.829315 718.847839,358.662933 
	C718.001648,361.636505 720.527466,362.645081 721.939636,364.121490 
	C726.669556,369.066467 727.451233,374.199463 723.997559,378.440613 
	C720.657837,382.541870 711.860352,383.585663 707.424927,380.406891 
	C703.726074,377.755981 703.251770,373.511108 706.594727,371.260498 
	C709.018066,369.629059 711.690979,368.583405 712.239380,373.116364 
	C712.410522,374.530701 712.689209,375.802643 714.257019,376.193481 
	C715.389282,376.475739 716.131348,375.794800 716.695068,374.889801 
	C717.537048,373.537964 717.101562,372.284454 716.255127,371.185028 
	C714.640503,369.087708 712.959656,366.139923 710.172363,366.674438 
	C707.178101,367.248627 703.574036,367.687927 702.138184,371.609406 
	C701.058350,374.558441 699.363464,377.281586 696.729797,379.269806 
	C691.008179,383.589233 686.427429,383.027863 679.492371,377.075073 
	C670.439026,383.505829 669.346313,383.553833 662.649414,377.624176 
	C661.357788,378.493378 660.030579,379.440094 658.651184,380.303406 
	C655.906372,382.021179 653.042358,382.539154 650.235718,380.554169 
	C647.522888,378.635498 646.747375,375.846375 647.072144,372.631958 
	C647.499634,368.401123 649.591187,364.449554 649.470032,359.963593 
	C646.593018,360.044891 646.118835,362.223328 645.218933,363.877441 
	C643.291687,367.420197 642.122681,371.267212 641.427734,375.197784 
	C640.766663,378.936920 639.936768,382.464264 635.131775,381.661377 
	C630.538757,380.893890 631.678467,377.175385 632.031372,373.686859 
M688.959595,366.536163 
	C688.181641,368.445709 688.102966,370.457733 688.447571,372.424591 
	C688.820435,374.553375 690.148254,375.121735 692.101990,374.078735 
	C696.852783,371.542542 698.015869,362.388214 694.044983,358.730621 
	C690.999023,360.957672 690.999023,360.957672 688.959595,366.536163 
M616.423279,366.039337 
	C616.060730,367.813843 615.607788,369.576233 615.368164,371.367157 
	C615.213440,372.523163 615.384583,373.755615 616.635071,374.352692 
	C617.852234,374.933838 618.843567,374.342010 619.791809,373.578735 
	C623.543884,370.558441 624.714294,363.076691 621.973877,358.705139 
	C618.735840,359.726501 617.796448,362.599915 616.423279,366.039337 
z"/>
<path fill="#000000" opacity="1.000000" stroke="none" 
	d="
M607.182922,352.082062 
	C605.151794,360.558289 603.145203,368.619812 601.274475,376.712738 
	C600.445129,380.300629 598.596985,382.617737 594.718994,381.847137 
	C590.674866,381.043579 590.806213,378.033295 591.658813,374.814484 
	C594.507751,364.059021 597.296631,353.287628 600.128479,342.527588 
	C600.374573,341.592468 601.078491,340.742157 600.424622,339.468872 
	C597.002625,338.590088 593.702332,339.214355 590.574158,341.065521 
	C587.359070,342.968079 586.132263,345.780884 587.962830,349.065796 
	C589.813110,352.385925 589.169983,354.477814 585.752869,355.661407 
	C582.270691,356.867523 579.954041,355.224701 578.641296,352.046753 
	C576.771118,347.519043 579.416504,340.379547 584.321655,336.633667 
	C590.400452,331.991394 597.333862,331.073730 604.686340,332.096283 
	C607.976746,332.553894 611.255371,333.123535 614.558105,333.457092 
	C618.532410,333.858490 622.116394,332.751740 625.215393,330.174469 
	C626.401184,329.188293 627.699585,328.219238 629.212769,329.392700 
	C630.580322,330.453247 630.413208,332.039917 630.083862,333.537354 
	C629.142700,337.816772 625.014832,340.830139 619.569214,341.254120 
	C609.791382,342.015381 609.791382,342.015381 607.182922,352.082062 
z"/>
<path fill="#000000" opacity="1.000000" stroke="none" 
	d="
M541.097656,149.533691 
	C545.326233,142.248672 551.091248,139.695175 557.906189,141.788452 
	C564.261536,143.740585 567.750488,149.401047 567.305420,157.037811 
	C566.927063,163.529175 562.164246,168.582291 555.291443,169.784134 
	C547.102905,171.216080 539.098328,163.156067 539.962524,154.275742 
	C540.106201,152.799210 540.610718,151.357773 541.097656,149.533691 
z"/>
<path fill="#000000" opacity="1.000000" stroke="none" 
	d="
M496.601868,198.266937 
	C494.820618,201.069656 492.582825,201.140411 490.323853,199.881744 
	C487.997620,198.585617 486.663818,196.442841 486.825195,193.694870 
	C487.036133,190.103592 490.635834,188.495728 493.865906,190.612915 
	C496.460968,192.313889 497.621307,194.768173 496.601868,198.266937 
z"/>
<path fill="#000000" opacity="1.000000" stroke="none" 
	d="
M529.150146,194.515976 
	C530.521729,191.366364 532.322693,189.380630 535.669067,189.796707 
	C537.536743,190.028946 538.499207,191.426086 538.958313,193.078201 
	C539.669800,195.638321 538.288208,197.539108 536.606384,199.189774 
	C535.100586,200.667587 533.259644,201.400131 531.219360,200.328064 
	C529.020874,199.172897 528.418640,197.244522 529.150146,194.515976 
z"/>
</svg>